<svg xmlns="http://www.w3.org/2000/svg" id="Grid" viewBox="0 0 101.23 33.16"><defs><style>.cls-1{fill:#fff;}.cls-2{fill:#fff;}</style></defs><title>raxo-logo</title><path class="cls-1" d="M94.2,83.39H87.48L80.25,72H75.37V83.39h-5.8V50.7h12c5.25,0,11.05,3.32,11.05,10.55,0,4.33-2.35,7.55-6.49,9.72Zm-7.55-22c0-2.85-2.21-5-5.85-5H75.37V66.72h5.34C84.39,66.72,86.65,64.33,86.65,61.38Z" transform="translate(-69.56 -50.7)"/><path class="cls-1" d="M93.7,72.06c0-6.68,4.74-11.7,10.64-11.7a7.45,7.45,0,0,1,6.68,3.5v-3h5.76V83.39H111V80.26a7.28,7.28,0,0,1-6.68,3.59C98.39,83.85,93.7,78.83,93.7,72.06Zm17.68,0c0-4-2.53-6.59-6-6.59-3,0-5.85,2.39-5.85,6.63s2.81,6.77,5.85,6.77C108.8,78.83,111.38,76.12,111.38,72Z" transform="translate(-69.56 -50.7)"/><path class="cls-1" d="M126.21,71.93l-8.06-11.1h6.45l4.79,7,4.65-7h7l-8.24,11.33,8.2,11.24h-6.54L129.34,76l-5,7.37H118Z" transform="translate(-69.56 -50.7)"/><path class="cls-1" d="M138.83,72.11a11.88,11.88,0,1,1,11.88,11.74A11.88,11.88,0,0,1,138.83,72.11Zm18,0a6.08,6.08,0,1,0-6.08,6.36A6.06,6.06,0,0,0,156.79,72.11Z" transform="translate(-69.56 -50.7)"/><path class="cls-2" d="M163.47,80.35a3.66,3.66,0,0,1,7.32,0A3.66,3.66,0,0,1,163.47,80.35Z" transform="translate(-69.56 -50.7)"/></svg>